# xmcd
#
# Track frame offsets:
#	150
#	11868
#	28433
#	45905
#	60981
#	77338
#	97429
#	110888
#	126980
#	140759
#
# Disc length: 2117 seconds
#
# Revision: 1
# Processed by: cddbd v1.5.1PL0 Copyright (c) Steve Scherf et al.
# Submitted via: EasyCDDAExtractor 7.5.2.1
#
DISCID=8f08430a
DTITLE=Dolly Parton, Linda Ronstadt and Emmylou Harris - Trio
DYEAR=1900
DGENRE=Country
TTITLE0=The Pain Of Loving You
TTITLE1=Making Plans
TTITLE2=To Know Him Is To Love Him
TTITLE3=Hobo's Meditation
TTITLE4=Wildflowers
TTITLE5=Telling Me Lies
TTITLE6=My Dear Companion
TTITLE7=I've Had Enough
TTITLE8=Rosewood Casket
TTITLE9=Farther Along
EXTD=
EXTT0=
EXTT1=
EXTT2=
EXTT3=
EXTT4=
EXTT5=
EXTT6=
EXTT7=
EXTT8=
EXTT9=
PLAYORDER=
